<?xml version="1.0" encoding="UTF-8" standalone="no"?>
<!-- Created with Inkscape (http://www.inkscape.org/) -->

<svg
   width="55.179787mm"
   height="35.876282mm"
   viewBox="0 0 55.179787 35.876282"
   version="1.1"
   id="svg1"
   xml:space="preserve"
   xmlns="http://www.w3.org/2000/svg"
   xmlns:svg="http://www.w3.org/2000/svg"><defs
     id="defs1" /><g
     id="layer1"
     transform="translate(-78.852426,-81.904348)"><g
       style="clip-rule:evenodd;fill-rule:evenodd;image-rendering:optimizeQuality;shape-rendering:geometricPrecision;text-rendering:geometricPrecision"
       id="g17"
       transform="matrix(0.04708173,0,0,0.04708173,78.875975,81.927893)"><g
         id="g1"><path
           style="opacity:0.99"
           fill="#f3952b"
           d="m 136.5,-0.5 c 6.667,0 13.333,0 20,0 52.37,4.92879 92.536,29.5955 120.5,74 8.959,16.21 14.292,33.543 16,52 0.01,114.702 0.677,229.368 2,344 4.602,12.936 13.436,21.436 26.5,25.5 7.624,1.096 15.291,1.762 23,2 32.186,8.831 46.686,29.997 43.5,63.5 -3.983,22.317 -16.817,36.817 -38.5,43.5 -71.496,7.013 -122.996,-21.487 -154.5,-85.5 -6.997,-17.652 -10.664,-35.986 -11,-55 -0.333,-108.333 -0.667,-216.667 -1,-325 -6.813,-21.134 -21.313,-30.634 -43.5,-28.5 -15.833,3.833 -25.667,13.667 -29.5,29.5 -0.333,93.667 -0.667,187.333 -1,281 -2.015,20.87 -12.5148,35.703 -31.5,44.5 -24.1477,8.7 -45.6477,4.533 -64.5,-12.5 -7.51199,-8.725 -12.011991,-18.725 -13.5,-30 0,-95.667 0,-191.333 0,-287 C 5.13503,79.7049 32.8017,38.8716 82.5,13 99.854,5.36883 117.854,0.868833 136.5,-0.5 Z"
           id="path1" /></g><g
         id="g2"><path
           style="opacity:0.992"
           fill="#f3952b"
           d="m 349.5,-0.5 c 4.333,0 8.667,0 13,0 25.85,3.6775 41.683,18.3442 47.5,44 0.333,23.6667 0.667,47.3333 1,71 3.128,21.391 15.461,32.724 37,34 19.116,-0.885 31.116,-10.552 36,-29 0.333,-22.6667 0.667,-45.3333 1,-68 1.526,-22.2227 12.359,-38.0561 32.5,-47.5 5.374,-1.83964 10.707,-3.339644 16,-4.5 4.333,0 8.667,0 13,0 26.752,3.91656 42.585,19.2499 47.5,46 0.667,97 0.667,194 0,291 -5.456,52.779 -31.289,91.946 -77.5,117.5 -48.136,21.454 -95.802,20.454 -143,-3 -58.588,-37.696 -81.088,-90.863 -67.5,-159.5 15.383,-26.095 37.883,-35.261 67.5,-27.5 16.675,5.342 28.175,16.175 34.5,32.5 1.7,12.992 3.367,25.992 5,39 8.223,18.365 22.389,26.199 42.5,23.5 15.5,-3.5 25,-13 28.5,-28.5 0.667,-25.667 0.667,-51.333 0,-77 -55.466,12.97 -103.466,-0.363 -144,-40 -22.143,-23.963 -34.809,-52.296 -38,-85 -0.96,-30.0401 -0.627,-60.0401 1,-90 7.191,-23.0329 22.691,-36.0329 46.5,-39 z"
           id="path2" /></g><g
         id="g3"><path
           style="opacity:0.993"
           fill="#f3952b"
           d="m 763.5,-0.5 c 7,0 14,0 21,0 66.143,5.31775 114.643,37.3178 145.5,96 8.281,18.123 13.281,37.123 15,57 0.013,105.363 0.68,210.696 2,316 3.888,13.278 12.388,22.111 25.5,26.5 9.675,0.963 19.341,1.963 29,3 25.13,8.558 38.13,26.225 39,53 -1.49,28.815 -16.15,46.815 -44,54 -63.404,4.552 -111.237,-20.281 -143.5,-74.5 -8.745,-16.977 -14.078,-34.977 -16,-54 -0.333,-41.333 -0.667,-82.667 -1,-124 -18.435,8.153 -37.768,11.82 -58,11 -22.736,0.887 -44.236,-3.78 -64.5,-14 -0.833,24.326 -1.333,48.66 -1.5,73 -5.914,29.74 -24.08,45.407 -54.5,47 -24.495,-0.343 -41.662,-11.676 -51.5,-34 -1.637,-5.214 -2.637,-10.547 -3,-16 -0.667,-85.667 -0.667,-171.333 0,-257 C 606.728,99.5094 635.561,52.0094 689.5,20 712.817,7.84036 737.484,1.00703 763.5,-0.5 Z m 1,110 c 32.729,-2.563 55.562,11.104 68.5,41 1.637,5.214 2.637,10.547 3,16 0.827,22.239 0.66,44.406 -0.5,66.5 -18.428,8.239 -37.762,12.072 -58,11.5 -22.837,0.582 -44.337,-4.418 -64.5,-15 -0.667,-22.333 -0.667,-44.667 0,-67 5.559,-29.058 22.726,-46.725 51.5,-53 z"
           id="path3" /></g><g
         id="g4"><path
           style="opacity:0.917"
           fill="#f3952b"
           d="m 1016.5,322.5 c 12.37,-0.065 22.53,4.602 30.5,14 2.34,5.102 3.01,10.436 2,16 -1.09,0.793 -2.25,1.46 -3.5,2 -2.89,-1.24 -5.73,-2.574 -8.5,-4 -0.46,-9.463 -5.46,-14.797 -15,-16 -4.92,0.506 -6.92,3.173 -6,8 6.48,5.904 13.15,11.571 20,17 5.89,12.729 2.39,21.896 -10.5,27.5 -14.37,1.668 -24.87,-3.832 -31.5,-16.5 -3.698,-12.06 -0.198,-15.394 10.5,-10 0.56,3.237 1.72,6.57 3.5,10 3.6,4.219 8.1,5.719 13.5,4.5 5.01,-2.733 5.34,-6.066 1,-10 -6.1,-4.137 -11.94,-8.637 -17.5,-13.5 -5.51,-9.396 -4.34,-17.896 3.5,-25.5 2.66,-1.478 5.32,-2.645 8,-3.5 z"
           id="path4" /></g><g
         id="g5"><path
           style="opacity:0.916"
           fill="#f3952b"
           d="m 1084.5,360.5 c 3.7,0.504 6.87,2.17 9.5,5 0.67,1.667 0.67,3.333 0,5 -9.36,11.189 -18.52,22.522 -27.5,34 3.75,4.079 7.42,8.079 11,12 -0.96,4.125 -3.46,6.792 -7.5,8 -11.17,-9.167 -22.33,-18.333 -33.5,-27.5 -1.74,-6.924 0.93,-10.258 8,-10 3.19,2.432 6.19,5.099 9,8 0.67,0.667 1.33,0.667 2,0 10.25,-11.08 19.92,-22.58 29,-34.5 z"
           id="path5" /></g><g
         id="g6"><path
           style="opacity:0.921"
           fill="#f3952b"
           d="m 1120.5,396.5 c 6.15,0.928 8.99,4.595 8.5,11 -2.89,2.861 -6.06,5.361 -9.5,7.5 -2.24,1.739 -3.91,3.906 -5,6.5 1.53,4.359 3.7,8.359 6.5,12 1.05,1.017 2.22,1.184 3.5,0.5 5.23,-3.403 10.56,-6.57 16,-9.5 1.53,0.029 2.7,0.696 3.5,2 1.84,2.181 3.01,4.681 3.5,7.5 -0.29,1.89 -1.29,3.223 -3,4 -13.84,8.417 -27.5,17.084 -41,26 -2.2,1.373 -4.53,1.706 -7,1 -5.63,-8.749 -11.13,-17.583 -16.5,-26.5 -3,-16.333 3.83,-23.833 20.5,-22.5 0.92,0.374 1.75,0.874 2.5,1.5 0.51,-2.378 1.18,-4.712 2,-7 5.15,-4.801 10.31,-9.467 15.5,-14 z m -22,30 c 2.34,0.586 4.51,1.586 6.5,3 2.5,3.833 5,7.667 7.5,11.5 -3.42,3.128 -7.26,5.628 -11.5,7.5 -4.01,-4.161 -7.18,-8.994 -9.5,-14.5 1.2,-3.695 3.53,-6.195 7,-7.5 z"
           id="path6" /></g><g
         id="g7"><path
           style="opacity:0.93"
           fill="#f3952b"
           d="m 1171.5,508.5 c 0,1 0,2 0,3 -1.58,0.575 -3.24,0.908 -5,1 -19,-2.13 -38,-4.297 -57,-6.5 -1.89,-3.901 -3.22,-8.068 -4,-12.5 0.36,-2.532 1.7,-4.365 4,-5.5 15.93,-10.217 32.1,-20.05 48.5,-29.5 0.95,0.405 1.61,1.072 2,2 0.68,3.05 1.51,6.05 2.5,9 -3.44,3.557 -7.1,6.891 -11,10 1.36,4.611 2.52,9.277 3.5,14 0.27,1.829 1.11,3.329 2.5,4.5 3.75,0.26 7.42,0.927 11,2 1.19,2.87 2.19,5.704 3,8.5 z m -32,-24 c 1.29,0.558 2.12,1.558 2.5,3 0.7,2.978 1.2,5.978 1.5,9 -6.46,0.35 -12.79,-0.317 -19,-2 5.02,-3.359 10.02,-6.693 15,-10 z"
           id="path7" /></g><g
         id="g8"><path
           style="opacity:0.933"
           fill="#f3952b"
           d="m 773.5,526.5 c 2.292,-0.256 4.459,0.077 6.5,1 1.325,3.928 1.658,7.928 1,12 -10.229,8.529 -20.729,16.696 -31.5,24.5 11.326,-0.466 22.659,-0.799 34,-1 1.126,3.744 1.293,7.577 0.5,11.5 -19.385,2.793 -38.885,4.626 -58.5,5.5 -0.702,-3.466 -1.369,-6.966 -2,-10.5 0.5,-1 1,-2 1.5,-3 10.308,-7.475 20.475,-15.141 30.5,-23 -10.38,-0.542 -20.713,0.125 -31,2 -1.884,-0.615 -2.884,-1.948 -3,-4 -1.082,-3.039 -1.082,-6.039 0,-9 17.466,-2.069 34.799,-4.069 52,-6 z"
           id="path8" /></g><g
         id="g9"><path
           style="opacity:0.922"
           fill="#f3952b"
           d="m 1111.5,555.5 c 1.64,-0.214 3.14,0.12 4.5,1 4.22,8.372 9.39,16.039 15.5,23 10.46,-4.098 20.96,-8.098 31.5,-12 2.43,-0.822 4.93,-1.156 7.5,-1 -0.48,5.09 -1.81,9.924 -4,14.5 -10.05,3.176 -19.72,7.01 -29,11.5 0.8,2.633 2.47,4.467 5,5.5 5.93,1.817 11.93,3.317 18,4.5 -0.19,4.413 -0.85,8.746 -2,13 -19.41,-4.352 -38.74,-9.019 -58,-14 -0.17,-4.144 0.5,-8.144 2,-12 6.11,-0.316 12.11,0.684 18,3 0.81,-0.308 1.47,-0.808 2,-1.5 -4.5,-7.167 -9,-14.333 -13.5,-21.5 -0.13,-4.827 0.71,-9.494 2.5,-14 z"
           id="path9" /></g><g
         id="g10"><path
           style="opacity:0.928"
           fill="#f3952b"
           d="m 767.5,589.5 c 25.378,-0.458 36.544,11.875 33.5,37 -4.803,11.464 -13.303,18.631 -25.5,21.5 -21.36,3.301 -33.693,-5.699 -37,-27 2.934,-16.765 12.601,-27.265 29,-31.5 z m 4,13 c 10.793,-0.943 17.126,3.89 19,14.5 -1.143,5.288 -3.809,9.621 -8,13 -8.322,6.15 -16.989,7.15 -26,3 -8.123,-9.239 -7.123,-17.572 3,-25 3.981,-2.162 7.981,-3.995 12,-5.5 z"
           id="path10" /></g><g
         id="g11"><path
           style="opacity:0.921"
           fill="#f3952b"
           d="m 1095.5,613.5 c 13.51,-1.417 21.17,4.583 23,18 2.94,-1.075 5.94,-1.241 9,-0.5 6.03,2.433 11.87,5.266 17.5,8.5 -0.2,3.912 -1.7,7.412 -4.5,10.5 -1.67,0.667 -3.33,0.667 -5,0 -4.6,-2.468 -9.26,-4.635 -14,-6.5 -1.8,0.077 -3.47,0.577 -5,1.5 -2.04,3.253 -4.21,6.42 -6.5,9.5 -0.51,1.496 -0.01,2.663 1.5,3.5 4.92,3.042 9.75,6.209 14.5,9.5 0.37,4.922 -1.63,8.589 -6,11 -15.52,-8.85 -30.69,-18.35 -45.5,-28.5 -1.71,-0.777 -2.71,-2.11 -3,-4 5.1,-9.023 10.6,-17.856 16.5,-26.5 2.48,-2.139 4.98,-4.139 7.5,-6 z m 2,14 c 5.8,-0.939 9.46,1.395 11,7 -2.15,5.643 -5.32,10.643 -9.5,15 -4.03,-2.083 -7.53,-4.75 -10.5,-8 2.2,-5.197 5.2,-9.864 9,-14 z"
           id="path11" /></g><g
         id="g12"><path
           style="opacity:0.92"
           fill="#f3952b"
           d="m 811.5,637.5 c 1.699,-0.16 3.366,0.006 5,0.5 7.167,7.167 14.333,14.333 21.5,21.5 5.967,12.098 2.801,20.931 -9.5,26.5 -3.114,0.123 -6.114,0.29 -9,0.5 1.167,2.7 1,5.367 -0.5,8 -3.667,5 -7.333,10 -11,15 -5.64,1.231 -9.14,-1.102 -10.5,-7 2.108,-5.294 5.274,-9.961 9.5,-14 0.402,-7.127 -2.765,-12.127 -9.5,-15 -5.086,3.58 -9.753,7.746 -14,12.5 -5.192,0.493 -8.525,-1.84 -10,-7 0.167,-0.833 0.333,-1.667 0.5,-2.5 13.068,-12.565 25.568,-25.565 37.5,-39 z m 3,17 c 4.572,3.063 8.739,6.73 12.5,11 0.421,8.542 -3.412,11.375 -11.5,8.5 -2.833,-2.833 -5.667,-5.667 -8.5,-8.5 -0.667,-1 -0.667,-2 0,-3 2.705,-2.536 5.205,-5.203 7.5,-8 z"
           id="path12" /></g><g
         id="g13"><path
           style="opacity:0.925"
           fill="#f3952b"
           d="m 1053.5,661.5 c 22.89,-0.116 35.89,11.217 39,34 -2.75,20.594 -14.42,29.761 -35,27.5 -18.19,-6.867 -26.69,-20.034 -25.5,-39.5 3.34,-11.174 10.51,-18.507 21.5,-22 z m 2,12 c 11.05,0.945 18.55,6.612 22.5,17 3.5,11.674 -0.67,18.674 -12.5,21 -9.31,-1.803 -15.81,-7.136 -19.5,-16 -3.62,-10.423 -0.45,-17.756 9.5,-22 z"
           id="path13" /></g><g
         id="g14"><path
           style="opacity:0.914"
           fill="#f3952b"
           d="m 849.5,671.5 c 13.725,6.362 27.392,13.029 41,20 0.915,0.828 1.581,1.828 2,3 -1.167,2.333 -2.333,4.667 -3.5,7 -5.36,0.765 -10.193,-0.735 -14.5,-4.5 -1,-0.667 -2,-0.667 -3,0 -7.216,12.931 -14.049,26.098 -20.5,39.5 -3.755,0.909 -7.255,0.075 -10.5,-2.5 -1.074,-0.739 -1.741,-1.739 -2,-3 6.992,-13.651 13.992,-27.318 21,-41 -4.174,-2.588 -8.507,-4.921 -13,-7 -0.667,-1 -1.333,-2 -2,-3 1.552,-2.943 3.219,-5.777 5,-8.5 z"
           id="path14" /></g><g
         id="g15"><path
           style="opacity:0.916"
           fill="#f3952b"
           d="m 1018.5,684.5 c 1.33,0 2.67,0 4,0 -1.51,13.226 -3.51,26.392 -6,39.5 1.69,6.912 3.69,13.745 6,20.5 -0.03,1.529 -0.7,2.696 -2,3.5 -2.5,0.833 -5,1.667 -7.5,2.5 -1.62,-0.225 -2.79,-1.058 -3.5,-2.5 -2.17,-6.5 -4.33,-13 -6.5,-19.5 -9.869,-8.87 -19.369,-18.037 -28.5,-27.5 0.145,-0.772 0.478,-1.439 1,-2 3.371,-1.068 6.704,-2.235 10,-3.5 7.648,5.815 14.481,12.481 20.5,20 1.05,-9.043 2.39,-18.043 4,-27 2.88,-1.448 5.71,-2.781 8.5,-4 z"
           id="path15" /></g><g
         id="g16"><path
           style="opacity:0.93"
           fill="#f3952b"
           d="m 935.5,761.5 c -1,0 -2,0 -3,0 -2.953,-0.504 -5.786,-1.504 -8.5,-3 0.686,-7.978 1.519,-15.978 2.5,-24 -6.956,-1.447 -13.956,-2.28 -21,-2.5 -1.337,7.519 -2.837,15.019 -4.5,22.5 -4.093,1.275 -8.093,0.941 -12,-1 2.006,-19.046 4.673,-38.046 8,-57 0.689,-0.857 1.522,-1.523 2.5,-2 3.675,0.497 7.175,1.497 10.5,3 -0.541,6.122 -1.374,12.289 -2.5,18.5 0.085,1.107 0.419,2.107 1,3 6.02,1.121 12.02,2.288 18,3.5 1.955,-0.78 2.955,-2.28 3,-4.5 0.888,-5.492 1.721,-10.992 2.5,-16.5 4.254,-1.366 8.42,-1.033 12.5,1 0.333,0.667 0.667,1.333 1,2 -2.966,19.106 -6.3,38.106 -10,57 z"
           id="path16" /></g></g></g></svg>
